<svg width="16" height="20" viewBox="0 0 16 20" fill="none" xmlns="http://www.w3.org/2000/svg">
<path d="M8 14.9651C8.28333 14.9651 8.521 14.8691 8.713 14.6771C8.905 14.4851 9.00067 14.2478 9 13.9651V9.96511C9 9.68178 8.904 9.44445 8.712 9.25311C8.52 9.06178 8.28267 8.96578 8 8.96511C7.71667 8.96511 7.47933 9.06111 7.288 9.25311C7.09667 9.44511 7.00067 9.68245 7 9.96511V13.9651C7 14.2484 7.096 14.4861 7.288 14.6781C7.48 14.8701 7.71733 14.9658 8 14.9651ZM8 6.96511C8.28333 6.96511 8.521 6.86911 8.713 6.67711C8.905 6.48511 9.00067 6.24778 9 5.96511C9 5.68178 8.904 5.44445 8.712 5.25311C8.52 5.06178 8.28267 4.96578 8 4.96511C7.71667 4.96511 7.47933 5.06111 7.288 5.25311C7.09667 5.44511 7.00067 5.68245 7 5.96511C7 6.24845 7.096 6.48611 7.288 6.67811C7.48 6.87011 7.71733 6.96578 8 6.96511ZM8 19.8651C7.88333 19.8651 7.775 19.8568 7.675 19.8401C7.575 19.8234 7.475 19.7984 7.375 19.7651C5.125 19.0151 3.33333 17.6274 2 15.6021C0.666667 13.5768 0 11.3978 0 9.06511V4.34011C0 3.92345 0.121 3.54845 0.363 3.21511C0.605 2.88178 0.917333 2.64011 1.3 2.49011L7.3 0.240112C7.53333 0.156779 7.76667 0.115112 8 0.115112C8.23333 0.115112 8.46667 0.156779 8.7 0.240112L14.7 2.49011C15.0833 2.64011 15.396 2.88178 15.638 3.21511C15.88 3.54845 16.0007 3.92345 16 4.34011V9.06511C16 11.3984 15.3333 13.5778 14 15.6031C12.6667 17.6284 10.875 19.0158 8.625 19.7651C8.525 19.7984 8.425 19.8234 8.325 19.8401C8.225 19.8568 8.11667 19.8651 8 19.8651ZM8 17.8651C9.73333 17.3151 11.1667 16.2151 12.3 14.5651C13.4333 12.9151 14 11.0818 14 9.06511V4.34011L8 2.09011L2 4.34011V9.06511C2 11.0818 2.56667 12.9151 3.7 14.5651C4.83333 16.2151 6.26667 17.3151 8 17.8651Z" fill="#FF8A30"/>
</svg>
