<svg width="20" height="22" viewBox="0 0 20 22" fill="none" xmlns="http://www.w3.org/2000/svg">
<path fill-rule="evenodd" clip-rule="evenodd" d="M13.31 19.9951C13.21 20.6751 12.59 21.2151 11.85 21.2151H8.14999C7.40999 21.2151 6.78999 20.6751 6.69999 19.9451L6.42999 18.0551C6.15999 17.9151 5.89999 17.7651 5.63999 17.5951L3.83999 18.3151C3.13999 18.5751 2.36999 18.2851 2.02999 17.6651L0.19999 14.4951C-0.15001 13.8351 -9.83477e-06 13.0551 0.55999 12.6151L2.08999 11.4251C2.07999 11.2751 2.06999 11.1251 2.06999 10.9651C2.06999 10.8151 2.07999 10.6551 2.08999 10.5051L0.56999 9.3151C-0.0200098 8.8651 -0.17001 8.0551 0.19999 7.4351L2.04999 4.2451C2.38999 3.6251 3.15999 3.3451 3.83999 3.6151L5.64999 4.3451C5.90999 4.1751 6.16999 4.0251 6.42999 3.8851L6.69999 1.9751C6.78999 1.2751 7.40999 0.725098 8.13999 0.725098H11.84C12.58 0.725098 13.2 1.2651 13.29 1.9951L13.56 3.8851C13.83 4.0251 14.09 4.1751 14.35 4.3451L16.15 3.6251C16.86 3.3651 17.63 3.6551 17.97 4.2751L19.81 7.4551C20.17 8.1151 20.01 8.8951 19.45 9.3351L17.93 10.5251C17.94 10.6751 17.95 10.8251 17.95 10.9851C17.95 11.1451 17.94 11.2951 17.93 11.4451L19.45 12.6351C20.01 13.0851 20.17 13.8651 19.82 14.4951L17.96 17.7151C17.62 18.3351 16.85 18.6151 16.16 18.3451L14.36 17.6251C14.1 17.7951 13.84 17.9451 13.58 18.0851L13.31 19.9951ZM8.61999 19.2151H11.38L11.75 16.6651L12.28 16.4451C12.72 16.2651 13.16 16.0051 13.62 15.6651L14.07 15.3251L16.45 16.2851L17.83 13.8851L15.8 12.3051L15.87 11.7451L15.8731 11.7182C15.902 11.4678 15.93 11.2258 15.93 10.9651C15.93 10.6951 15.9 10.4351 15.87 10.1851L15.8 9.6251L17.83 8.0451L16.44 5.6451L14.05 6.6051L13.6 6.2551C13.18 5.9351 12.73 5.6751 12.27 5.4851L11.75 5.2651L11.38 2.7151H8.61999L8.24999 5.2651L7.71999 5.4751C7.27999 5.6651 6.83999 5.9151 6.37999 6.2651L5.92999 6.5951L3.54999 5.6451L2.15999 8.0351L4.18999 9.6151L4.11999 10.1751C4.08999 10.4351 4.05999 10.7051 4.05999 10.9651C4.05999 11.2251 4.07999 11.4951 4.11999 11.7451L4.18999 12.3051L2.15999 13.8851L3.53999 16.2851L5.92999 15.3251L6.37999 15.6751C6.80999 16.0051 7.23999 16.2551 7.70999 16.4451L8.23999 16.6651L8.61999 19.2151ZM13.5 10.9651C13.5 12.8981 11.933 14.4651 9.99999 14.4651C8.06699 14.4651 6.49999 12.8981 6.49999 10.9651C6.49999 9.0321 8.06699 7.4651 9.99999 7.4651C11.933 7.4651 13.5 9.0321 13.5 10.9651Z" fill="#FF8A30"/>
</svg>
