<svg width="18" height="21" viewBox="0 0 18 21" fill="none" xmlns="http://www.w3.org/2000/svg">
<path fill-rule="evenodd" clip-rule="evenodd" d="M12.97 15.7751C13.5 15.2751 14.21 14.9651 15 14.9651C16.66 14.9651 18 16.3051 18 17.9651C18 19.6251 16.66 20.9651 15 20.9651C13.34 20.9651 12 19.6251 12 17.9651C12 17.7251 12.04 17.4951 12.09 17.2751L5.04 13.1551C4.5 13.6551 3.79 13.9651 3 13.9651C1.34 13.9651 0 12.6251 0 10.9651C0 9.30509 1.34 7.96509 3 7.96509C3.79 7.96509 4.5 8.27509 5.04 8.77509L12.09 4.66509C12.04 4.44509 12 4.20509 12 3.96509C12 2.30509 13.34 0.965088 15 0.965088C16.66 0.965088 18 2.30509 18 3.96509C18 5.62509 16.66 6.96509 15 6.96509C14.21 6.96509 13.49 6.65509 12.96 6.15509L5.91 10.2651C5.96 10.4951 6 10.7251 6 10.9651C6 11.2051 5.96 11.4351 5.91 11.6651L12.97 15.7751ZM16 3.96509C16 3.41509 15.55 2.96509 15 2.96509C14.45 2.96509 14 3.41509 14 3.96509C14 4.51509 14.45 4.96509 15 4.96509C15.55 4.96509 16 4.51509 16 3.96509ZM3 11.9651C2.45 11.9651 2 11.5151 2 10.9651C2 10.4151 2.45 9.96509 3 9.96509C3.55 9.96509 4 10.4151 4 10.9651C4 11.5151 3.55 11.9651 3 11.9651ZM14 17.9651C14 18.5151 14.45 18.9651 15 18.9651C15.55 18.9651 16 18.5151 16 17.9651C16 17.4151 15.55 16.9651 15 16.9651C14.45 16.9651 14 17.4151 14 17.9651Z" fill="#FF8A30"/>
</svg>
