<svg width="22" height="19" viewBox="0 0 22 19" fill="none" xmlns="http://www.w3.org/2000/svg">
<path d="M11.1383 1.28978L13.5209 5.61746C13.8397 6.19647 14.4062 6.59745 15.0583 6.70557L20.0078 7.52628C20.0494 7.53318 20.0721 7.54763 20.0872 7.56127C20.1052 7.57753 20.1223 7.60233 20.1325 7.63433C20.1426 7.66632 20.1429 7.69647 20.1376 7.72013C20.1331 7.73998 20.1229 7.76486 20.0928 7.79448L16.652 11.1873C16.1607 11.6717 15.9307 12.3618 16.0331 13.0441L16.7429 17.7742C16.7616 17.899 16.6336 17.9943 16.5195 17.9405L11.9198 15.7731C11.3373 15.4986 10.6627 15.4986 10.0802 15.7731L5.48053 17.9405C5.36637 17.9943 5.23835 17.899 5.25708 17.7742L5.9669 13.0441C6.06929 12.3618 5.83926 11.6717 5.348 11.1873L1.90717 7.79448C1.87713 7.76486 1.86692 7.73998 1.86243 7.72013C1.85708 7.69647 1.85737 7.66632 1.86752 7.63433C1.87766 7.60233 1.89479 7.57753 1.9128 7.56127C1.92791 7.54763 1.95059 7.53318 1.9922 7.52628L6.94174 6.70557C7.59379 6.59745 8.16033 6.19647 8.4791 5.61746L10.8617 1.28978C10.9217 1.18079 11.0783 1.18079 11.1383 1.28978Z" stroke="#FF8A30" stroke-width="2"/>
</svg>
