<svg width="17" height="21" viewBox="0 0 17 21" fill="none" xmlns="http://www.w3.org/2000/svg">
<path d="M9 20.9651L8.75 17.9651H8.5C6.13333 17.9651 4.125 17.1401 2.475 15.4901C0.825 13.8401 0 11.8318 0 9.46509C0 7.09842 0.825 5.09009 2.475 3.44009C4.125 1.79009 6.13333 0.965088 8.5 0.965088C9.68333 0.965088 10.7877 1.18575 11.813 1.62709C12.8383 2.06842 13.7383 2.67675 14.513 3.45209C15.2877 4.22742 15.8957 5.12742 16.337 6.15209C16.7783 7.17675 16.9993 8.28109 17 9.46509C17 10.7151 16.796 11.9151 16.388 13.0651C15.98 14.2151 15.4213 15.2818 14.712 16.2651C14.004 17.2484 13.1623 18.1401 12.187 18.9401C11.2117 19.7401 10.1493 20.4151 9 20.9651ZM11 17.3151C12.1833 16.3151 13.146 15.1444 13.888 13.8031C14.63 12.4618 15.0007 11.0158 15 9.46509C15 7.64842 14.3707 6.11109 13.112 4.85309C11.8533 3.59509 10.316 2.96575 8.5 2.96509C6.68333 2.96509 5.146 3.59442 3.888 4.85309C2.63 6.11175 2.00067 7.64909 2 9.46509C2 11.2818 2.62933 12.8194 3.888 14.0781C5.14667 15.3368 6.684 15.9658 8.5 15.9651H11V17.3151ZM8.475 14.9401C8.75833 14.9401 9 14.8401 9.2 14.6401C9.4 14.4401 9.5 14.1984 9.5 13.9151C9.5 13.6318 9.4 13.3901 9.2 13.1901C9 12.9901 8.75833 12.8901 8.475 12.8901C8.19167 12.8901 7.95 12.9901 7.75 13.1901C7.55 13.3901 7.45 13.6318 7.45 13.9151C7.45 14.1984 7.55 14.4401 7.75 14.6401C7.95 14.8401 8.19167 14.9401 8.475 14.9401ZM7.75 11.7651H9.25C9.25 11.2651 9.3 10.9151 9.4 10.7151C9.5 10.5151 9.81667 10.1484 10.35 9.61509C10.65 9.31509 10.9 8.99009 11.1 8.64009C11.3 8.29009 11.4 7.91509 11.4 7.51509C11.4 6.66509 11.1127 6.02775 10.538 5.60309C9.96333 5.17842 9.284 4.96575 8.5 4.96509C7.76667 4.96509 7.15 5.16942 6.65 5.57809C6.15 5.98675 5.8 6.48242 5.6 7.06509L7 7.61509C7.08333 7.33175 7.24167 7.05275 7.475 6.77809C7.70833 6.50342 8.05 6.36575 8.5 6.36509C8.95 6.36509 9.28767 6.49009 9.513 6.74009C9.73833 6.99009 9.85067 7.26509 9.85 7.56509C9.85 7.84842 9.76667 8.10275 9.6 8.32809C9.43333 8.55342 9.23333 8.78242 9 9.01509C8.41667 9.51509 8.06267 9.91109 7.938 10.2031C7.81333 10.4951 7.75067 11.0158 7.75 11.7651Z" fill="#FF8A30"/>
</svg>
