<svg width="33" height="32" viewBox="0 0 33 32" fill="none" xmlns="http://www.w3.org/2000/svg">
<path d="M23.3304 16.836C23.297 13.4586 26.085 11.8386 26.209 11.7586C24.6424 9.46529 22.2024 9.15196 21.333 9.11596C19.257 8.90529 17.281 10.3386 16.2264 10.3386C15.1757 10.3386 13.549 9.14663 11.8264 9.17863C9.56502 9.21196 7.47836 10.4933 6.31303 12.52C3.96103 16.6 5.71036 22.6466 8.00236 25.956C9.12236 27.576 10.4584 29.396 12.2117 29.3293C13.8997 29.2626 14.5384 28.2373 16.5797 28.2373C18.621 28.2373 19.1957 29.3306 20.9824 29.2973C22.7997 29.2626 23.9504 27.6453 25.0624 26.0213C26.349 24.1413 26.8784 22.3213 26.9104 22.228C26.8704 22.2106 23.3664 20.868 23.3317 16.8346L23.3304 16.836ZM19.973 6.92529C20.9037 5.79596 21.5317 4.22929 21.3597 2.66663C20.0197 2.71996 18.3944 3.55996 17.433 4.68663C16.5704 5.68663 15.8144 7.27996 16.017 8.81196C17.513 8.92929 19.041 8.05196 19.973 6.92529Z" fill="black"/>
</svg>
