<svg width="24" height="24" viewBox="0 0 24 24" fill="none" xmlns="http://www.w3.org/2000/svg">
<path d="M21.75 6H2.25C1.83 6 1.5 5.67 1.5 5.25C1.5 4.83 1.83 4.5 2.25 4.5H21.75C22.17 4.5 22.5 4.83 22.5 5.25C22.5 5.67 22.17 6 21.75 6Z" fill="#6B6770"/>
<path d="M16.53 5.71499L15.87 3.52499C15.8237 3.3697 15.7288 3.2334 15.5991 3.13617C15.4695 3.03895 15.3121 2.98595 15.15 2.98499H8.85003C8.68775 2.98499 8.52985 3.03762 8.40003 3.13499C8.27021 3.23235 8.17547 3.3692 8.13003 3.52499L7.47003 5.71499L6.03003 5.27999L6.69003 3.08999C6.97503 2.12999 7.84503 1.48499 8.85003 1.48499H15.15C16.155 1.48499 17.01 2.12999 17.31 3.08999L17.97 5.27999L16.53 5.71499Z" fill="#6B6770"/>
<path d="M17.2951 22.5H6.70507C5.49007 22.5 4.50007 21.54 4.45507 20.325L3.94507 5.52001L5.44507 5.47501L5.95507 20.28C5.95507 20.685 6.30007 21 6.70507 21H17.3101C17.7151 21 18.0451 20.685 18.0601 20.28L18.5701 5.47501L20.0701 5.52001L19.5601 20.325C19.5151 21.54 18.5251 22.5 17.3101 22.5H17.2951Z" fill="#6B6770"/>
<path d="M9.75 17.43C9.33 17.43 9 17.1 9 16.68V10.68C9 10.26 9.33 9.92999 9.75 9.92999C10.17 9.92999 10.5 10.26 10.5 10.68V16.68C10.5 17.1 10.17 17.43 9.75 17.43ZM14.25 17.43C13.83 17.43 13.5 17.1 13.5 16.68V10.68C13.5 10.26 13.83 9.92999 14.25 9.92999C14.67 9.92999 15 10.26 15 10.68V16.68C15 17.1 14.67 17.43 14.25 17.43Z" fill="#6B6770"/>
</svg>
