<svg width="68" height="68" viewBox="0 0 68 68" fill="none" xmlns="http://www.w3.org/2000/svg">
<g filter="url(#filter0_d_4140_27504)">
<circle cx="34" cy="34" r="18" fill="white"/>
<path fill-rule="evenodd" clip-rule="evenodd" d="M28.4199 26.8301C28.2066 26.6314 27.9245 26.5232 27.6331 26.5284C27.3416 26.5335 27.0636 26.6516 26.8574 26.8577C26.6513 27.0638 26.5332 27.3419 26.5281 27.6334C26.523 27.9248 26.6311 28.2069 26.8299 28.4201L32.4099 34.0001L26.8299 39.5801C26.7193 39.6831 26.6307 39.8073 26.5692 39.9453C26.5077 40.0833 26.4746 40.2323 26.472 40.3834C26.4693 40.5344 26.4971 40.6845 26.5537 40.8245C26.6103 40.9646 26.6945 41.0919 26.8013 41.1987C26.9081 41.3055 27.0354 41.3897 27.1755 41.4463C27.3156 41.5029 27.4656 41.5307 27.6166 41.528C27.7677 41.5254 27.9167 41.4923 28.0547 41.4308C28.1927 41.3693 28.3169 41.2807 28.4199 41.1701L33.9999 35.5901L39.5799 41.1701C39.6829 41.2807 39.8071 41.3693 39.9451 41.4308C40.0831 41.4923 40.232 41.5254 40.3831 41.528C40.5341 41.5307 40.6842 41.5029 40.8243 41.4463C40.9643 41.3897 41.0916 41.3055 41.1984 41.1987C41.3052 41.0919 41.3895 40.9646 41.446 40.8245C41.5026 40.6845 41.5304 40.5344 41.5278 40.3834C41.5251 40.2323 41.492 40.0833 41.4305 39.9453C41.369 39.8073 41.2804 39.6831 41.1699 39.5801L35.5899 34.0001L41.1699 28.4201C41.3686 28.2069 41.4768 27.9248 41.4716 27.6334C41.4665 27.3419 41.3484 27.0638 41.1423 26.8577C40.9362 26.6516 40.6581 26.5335 40.3666 26.5284C40.0752 26.5232 39.7931 26.6314 39.5799 26.8301L33.9999 32.4101L28.4199 26.8301Z" fill="#6B6770"/>
</g>
<defs>
<filter id="filter0_d_4140_27504" x="0" y="0" width="68" height="68" filterUnits="userSpaceOnUse" color-interpolation-filters="sRGB">
<feFlood flood-opacity="0" result="BackgroundImageFix"/>
<feColorMatrix in="SourceAlpha" type="matrix" values="0 0 0 0 0 0 0 0 0 0 0 0 0 0 0 0 0 0 127 0" result="hardAlpha"/>
<feOffset/>
<feGaussianBlur stdDeviation="8"/>
<feComposite in2="hardAlpha" operator="out"/>
<feColorMatrix type="matrix" values="0 0 0 0 0.102246 0 0 0 0 0.0974317 0 0 0 0 0.0974317 0 0 0 0.25 0"/>
<feBlend mode="normal" in2="BackgroundImageFix" result="effect1_dropShadow_4140_27504"/>
<feBlend mode="normal" in="SourceGraphic" in2="effect1_dropShadow_4140_27504" result="shape"/>
</filter>
</defs>
</svg>
