<svg width="69" height="58" viewBox="0 0 69 58" fill="none" xmlns="http://www.w3.org/2000/svg">
<path d="M18.665 25.4237L31.7682 27.6526L41.7643 29.949L53.2127 32.1442L60.237 34.1366L62.0269 33.7314L65.9105 23.9716L68.9499 13.5702V8.09928L58.0419 4.85728L42.2709 2.02052L31.3629 0.872314L27.7832 2.76349L24.3048 9.38258L20.4211 19.345L18.665 25.4237Z" fill="#6D4225"/>
<path d="M31.3629 0.872314L27.7832 2.76349L24.3048 9.38258L20.4211 19.345L18.665 25.4238L21.2316 25.8628L23.5956 18.2981L27.9858 8.94355L30.5186 3.60776L31.5318 0.872314H31.3629Z" fill="#875330"/>
<path d="M63.7153 21.7765L60.2369 34.1366L62.0267 33.7314L65.9104 23.9716L68.9497 13.5702V8.09928L58.0417 4.85728L42.2707 2.02052L31.3627 0.872314L27.783 2.76349L27.6479 2.99988L35.3477 4.21563C35.3477 4.21563 48.0456 6.00549 48.3833 6.00549C48.6872 6.00549 60.1355 9.04487 60.1355 9.04487L64.9648 9.88914L64.8635 13.9754L63.7153 21.7765Z" fill="#875330"/>
<path d="M68.9497 8.16682C67.8015 8.7747 66.0792 9.61897 64.9647 10.1255L64.8634 13.9754L63.7152 21.7765L60.2368 34.1366L62.0267 33.7314L65.9103 23.9716L68.9497 13.5702V8.16682Z" fill="#9B5C3A"/>
<path d="M27.7832 2.76349L24.3048 9.38258L20.4211 19.345L18.665 25.4238L19.408 25.5588L21.3667 18.7033L24.5412 10.936L27.8845 4.21563L28.9314 2.15561L27.7832 2.76349Z" fill="#9B5C3A"/>
<path d="M58.7509 7.59273L48.8898 5.49894L33.1526 3.16875L28.526 2.35825L27.783 2.7635L27.6479 2.9999L35.3477 4.21564C35.3477 4.21564 48.0456 6.0055 48.3833 6.0055C48.6872 6.0055 60.1355 9.04489 60.1355 9.04489L64.9648 9.88916L64.8635 13.9754L63.7153 21.7765L60.2369 34.1367L60.8447 34.0016L62.6346 28.0579L64.2218 23.026L65.2687 17.5551L66.113 11.4764L66.3156 9.4839L64.3231 8.94357L58.7509 7.59273Z" fill="#9B5C3A"/>
<path d="M66.3156 9.48389C65.8428 9.72028 65.3362 9.95668 64.9647 10.1255L64.8634 13.9754L63.7152 21.7765L60.2368 34.1366L60.8447 34.0016L62.6345 28.0579L64.2218 23.026L65.2687 17.5551L66.1129 11.4764L66.3156 9.48389Z" fill="#AF6A4B"/>
<path d="M17.3813 25.3224L20.522 25.5251L29.5726 27.011L44.3643 30.0504L59.4936 33.5288L61.8238 35.4199V36.6695L59.3923 43.3899L49.0922 52.6431L44.0603 56.932L42.6082 57.4723L33.6589 55.2772L20.961 52.1028L7.0812 48.523L1.30638 46.7669L0.360802 43.6938L0.259473 39.5062L-0.449707 38.2567L-0.348398 35.7239L4.14313 32.1442L17.3813 25.3224Z" fill="#875330"/>
<path d="M18.0229 26.6057L12.5521 29.5438L7.92544 32.0428L3.19752 34.1366L1.84668 35.9265L2.69095 37.615L9.10742 39.5062L24.642 42.9846L40.8183 46.4292L46.9984 48.0165L51.625 44.7745L57.3998 39.2023L60.1352 36.1629L58.1427 34.5756L52.9758 33.0897L36.3943 29.6451L22.9535 27.011L18.0229 26.6057Z" fill="#6D4225"/>
<path d="M16.2331 19.5476L12.9911 21.0335L10.357 25.4237L9.71533 28.4969L10.6609 31.9415L13.2951 33.934L16.7735 34.8796L21.1637 32.6845L22.3119 28.8008L21.1637 23.2286L18.4282 19.6489L16.2331 19.5476Z" fill="#EF995E"/>
<path d="M30.5185 20.9322L27.8844 21.7765L25.1489 25.2211L23.6968 29.8477L25.1489 35.2173L29.3703 37.2098L32.7136 35.7239L35.1451 32.8871V27.3149L33.7605 22.9247L32.207 21.5401L30.5185 20.9322Z" fill="#EF995E"/>
<path d="M45.6477 23.5326L42.068 24.6132L40.1768 27.1123L38.083 31.8402L38.6909 36.4668L41.325 40.1478L46.1543 40.5531L49.5313 39.5062L51.2199 35.8252L51.8278 31.5363L49.9366 27.011L47.6402 24.2755L45.6477 23.5326Z" fill="#EF995E"/>
<path d="M51.2199 35.8252L51.8278 31.5363L51.355 30.4218L49.3287 33.6301L46.7959 34.4744L42.6083 33.4275L40.4808 30.253L40.0417 27.45L38.083 31.8402L38.6909 36.4668L41.325 40.1479L46.1543 40.5531L49.5313 39.5062L51.2199 35.8252Z" fill="#D8724A"/>
<path d="M33.3552 32.5832L31.5654 33.1911L29.0326 32.8871L26.9388 29.4425L26.4322 25.5251L27.1076 22.7221L25.1489 25.2211L23.6968 29.8477L25.1489 35.2173L29.3703 37.2098L32.7136 35.7239L35.1451 32.8871V31.9753L33.3552 32.5832Z" fill="#D8724A"/>
<path d="M22.1768 28.1254L21.5014 28.5982L19.3738 29.6451L16.2331 29.2061L13.8016 26.707L13.0924 23.6677L14.1731 20.4932L12.9911 21.0335L10.357 25.4237L9.71533 28.4969L10.6609 31.9415L13.2951 33.934L16.7735 34.8796L21.1637 32.6845L22.3119 28.8008L22.1768 28.1254Z" fill="#D8724A"/>
<path d="M12.2485 33.934L14.4436 31.7389L16.5374 28.1592L17.483 26.8083L19.6106 27.2136L20.1172 29.7464L21.1641 32.3805L22.8526 35.2173L21.5018 39.8101L12.4512 38.4593L12.2485 33.934Z" fill="#9B5C3A"/>
<path d="M28.4243 38.4593L31.565 34.9809L33.3548 32.1442L33.6588 30.5907L36.5969 31.0973L37.1372 32.2792L37.3398 35.3186L40.1766 37.919L41.5274 41.1948L39.5349 42.9846L33.3548 42.343L28.2217 40.1479L28.4243 38.4593Z" fill="#9B5C3A"/>
<path d="M28.4243 38.4593L28.2217 40.0803L31.1597 38.1554L33.6588 35.0822L35.6513 32.5832V30.9284L33.6588 30.5907L33.3548 32.1442L31.565 34.9809L28.4243 38.4593Z" fill="#875330"/>
<path d="M17.8207 30.8946L18.7325 27.0447L17.483 26.8083L16.5374 28.1592L14.4436 31.7389L12.2485 33.934L12.3499 36.2642L15.4906 34.8796L17.8207 30.8946Z" fill="#875330"/>
<path d="M2.38721 36.3655L3.4341 32.2792L5.42659 28.8008L8.16202 27.6526L10.8637 28.2605L13.1939 31.5363L14.646 35.9265L14.1395 39.8101L12.147 41.2961L9.31024 42.1403L5.93315 41.9377L3.83935 39.5062L3.09639 38.358L2.38721 36.3655Z" fill="#EF995E"/>
<path d="M19.1714 43.9302L18.1245 39.3036L19.1714 33.7314L22.6498 30.1517L25.4866 29.3074L28.0869 31.3337L30.9237 34.7783L31.3627 37.7164L31.025 40.4518L29.9781 44.2341L27.783 45.9227L24.9462 46.2266L21.7042 45.9227L19.1714 43.9302Z" fill="#EF995E"/>
<path d="M44.4998 32.2792L40.7174 32.4819L38.1846 35.7239L35.8882 40.1478V43.1872L36.5974 46.3279L38.4885 48.2191L44.1621 49.9076L46.9988 49.0634L49.6329 44.8758L49.5316 40.7557L48.586 36.7708L46.7962 33.8327L44.4998 32.2792Z" fill="#EF995E"/>
<path d="M14.0719 34.1704L11.708 35.8252L8.56728 35.0822L5.08888 32.0428L5.02133 29.4763L3.4341 32.2792L2.38721 36.3655L3.09639 38.358L3.83935 39.5062L5.93315 41.9377L9.31024 42.1403L12.147 41.2961L14.1395 39.8101L14.646 35.9265L14.0719 34.1704Z" fill="#D8724A"/>
<path d="M31.025 40.4518L31.1263 39.6751L28.7286 41.7013L26.4321 42.4443L22.1095 40.4518L20.5222 35.8252L21.1639 31.7051L19.1714 33.7314L18.1245 39.3036L19.1714 43.9302L21.7042 45.9227L24.9462 46.2266L27.783 45.9227L29.9781 44.2341L31.025 40.4518Z" fill="#D8724A"/>
<path d="M49.6329 44.8758L49.5316 40.7895L48.2483 42.4443L46.7962 43.4912L43.5542 43.2885L40.7174 41.9377L39.6368 37.4124L39.4679 34.0353L38.1846 35.7239L35.8882 40.1478V43.1872L36.5974 46.3279L38.4885 48.2191L44.1621 49.9076L46.9988 49.0634L49.6329 44.8758Z" fill="#D8724A"/>
<path d="M11.8091 40.3505L13.9366 37.7163L15.1862 36.3655L17.5839 36.4668L18.158 38.8646L19.2725 42.2416L11.8091 40.3505Z" fill="#AF6A4B"/>
<path d="M28.5596 44.3017L30.6196 41.4987L32.1393 39.6075L34.537 39.9452L35.719 41.6675L36.1918 44.0315L37.0698 46.1929L28.5596 44.3017Z" fill="#AF6A4B"/>
<path d="M46.9984 48.0165L40.8183 46.4292L24.6421 42.9846L9.10745 39.5062L2.69098 37.615L2.01556 36.2642L0.901128 35.8252L-0.213307 35.6226L-0.348398 35.7239L-0.449707 38.2567L0.259473 39.5062L0.360802 43.6938L1.30638 46.767L7.0812 48.523L20.961 52.1028L33.6589 55.2772L42.6082 57.4723L43.2836 57.2359L47.0997 50.7519L48.4843 48.1178L48.9909 46.5981L46.9984 48.0165Z" fill="#6D4225"/>
<path d="M40.8183 46.4292L24.6421 42.9846L9.10745 39.5062L2.69098 37.615L2.01556 36.2642L0.901128 35.8252L-0.213307 35.6226L-0.348398 35.7239L-0.449707 38.2567L0.124402 39.2698L5.08873 40.5531L17.3813 43.4912L29.2687 46.1253L44.1616 49.9076L47.5387 49.6037L47.8427 49.3335L48.4843 48.1178L48.9909 46.5981L46.9984 48.0165L40.8183 46.4292Z" fill="#875330"/>
<path d="M61.824 36.1629V35.4199L61.1823 34.9134L59.7639 35.859L60.1354 36.1629L57.4 39.2023L51.6252 44.7745L46.9985 48.0165L48.991 46.5981L48.4845 48.1178L47.8428 49.3335L50.7809 46.8683L57.9403 40.4518L61.1823 37.1085L61.824 36.1629Z" fill="#9B5C3A"/>
<path d="M47.9778 35.7914L46.7958 33.8327L44.4994 32.2792L42.5069 32.3805L42.0679 32.9209L42.2029 34.4068L44.2967 37.0072L46.4581 36.7032L47.944 35.9265L47.9778 35.7914Z" fill="#FFAF78"/>
<path d="M28.0869 31.3337L25.8918 29.6451L25.5203 29.8477L24.98 31.2661L26.162 33.8327L27.9856 35.3862L29.9443 34.677L30.0119 33.6638L28.0869 31.3337Z" fill="#FFAF78"/>
<path d="M46.8973 25.1536L45.0062 25.086L44.8711 26.4031L46.3232 28.0917L48.2819 27.6864L47.8092 25.7277L46.8973 25.1536Z" fill="#FFAF78"/>
<path d="M31.1936 22.9247L29.2349 23.8365L29.7414 25.6601L31.1936 26.4031L32.612 24.5119L31.1936 22.9247Z" fill="#FFAF78"/>
<path d="M9.27622 29.2736L8.09424 29.5776L9.27622 31.0973L10.8972 30.5569L9.27622 29.2736Z" fill="#FFAF78"/>
<path d="M17.7527 21.0335L17.415 21.8778L18.0567 22.9247L18.9009 22.5532L18.4619 21.3712L17.7527 21.0335Z" fill="#FFAF78"/>
</svg>
