<svg width="19" height="19" viewBox="0 0 19 19" fill="none" xmlns="http://www.w3.org/2000/svg">
<path d="M17 9.96509H7.5M15 12.9651L18 9.96509L15 6.96509M10 4.96509V3.96509C10 3.43465 9.78929 2.92595 9.41421 2.55087C9.03914 2.1758 8.53043 1.96509 8 1.96509H3C2.46957 1.96509 1.96086 2.1758 1.58579 2.55087C1.21071 2.92595 1 3.43465 1 3.96509V15.9651C1 16.4955 1.21071 17.0042 1.58579 17.3793C1.96086 17.7544 2.46957 17.9651 3 17.9651H8C8.53043 17.9651 9.03914 17.7544 9.41421 17.3793C9.78929 17.0042 10 16.4955 10 15.9651V14.9651" stroke="#FF8A30" stroke-width="2" stroke-linecap="round" stroke-linejoin="round"/>
</svg>
