<svg width="20" height="22" viewBox="0 0 20 22" fill="none" xmlns="http://www.w3.org/2000/svg">
<path fill-rule="evenodd" clip-rule="evenodd" d="M10.4381 1.77799C10.2936 1.7319 10.1369 1.74263 10.0001 1.80799C9.93226 1.83939 9.87208 1.88517 9.82373 1.94216C9.77538 1.99914 9.74001 2.06597 9.72008 2.13799L9.24408 3.97199C9.07779 4.61296 8.83611 5.23194 8.52408 5.81599C8.03908 6.72299 7.30608 7.41999 6.62608 8.00599L5.18808 9.24599C5.07808 9.34088 4.99216 9.46052 4.9374 9.59507C4.88264 9.72963 4.8606 9.87526 4.87308 10.02L5.68508 19.413C5.70483 19.6411 5.80931 19.8536 5.97793 20.0085C6.14655 20.1634 6.36709 20.2496 6.59608 20.25H11.2451C14.3811 20.25 17.0241 18.068 17.5311 15.137L18.2361 11.057C18.259 10.9255 18.2528 10.7906 18.2181 10.6617C18.1834 10.5329 18.1209 10.4132 18.0351 10.311C17.9493 10.2087 17.8422 10.1265 17.7213 10.0701C17.6003 10.0136 17.4685 9.9842 17.3351 9.98399H12.1541C11.1771 9.98399 10.4341 9.10799 10.5921 8.14399L11.2551 4.09999C11.3459 3.54609 11.32 2.97932 11.1791 2.43599C11.1393 2.29216 11.0638 2.16072 10.9596 2.0539C10.8554 1.94707 10.7259 1.86833 10.5831 1.82499L10.4381 1.77799ZM9.34808 0.456995C9.83167 0.224345 10.3861 0.186048 10.8971 0.349995L11.0421 0.396995C11.8191 0.646995 12.4251 1.26699 12.6311 2.05899C12.8241 2.80499 12.8601 3.58299 12.7351 4.34299L12.0721 8.38699C12.07 8.39892 12.0706 8.41115 12.0738 8.42283C12.077 8.4345 12.0827 8.44534 12.0905 8.45458C12.0983 8.46382 12.1081 8.47124 12.119 8.47632C12.13 8.4814 12.142 8.48402 12.1541 8.48399H17.3341C18.8341 8.48399 19.9701 9.83599 19.7141 11.313L19.0091 15.393C18.3711 19.081 15.0711 21.75 11.2451 21.75H6.59608C5.99167 21.7495 5.40941 21.5225 4.96418 21.1137C4.51896 20.7049 4.24311 20.1442 4.19108 19.542L3.37808 10.149C3.34503 9.76753 3.40304 9.38367 3.54733 9.02901C3.69163 8.67435 3.91809 8.35903 4.20808 8.10899L5.64808 6.86899C6.30308 6.30499 6.85408 5.75799 7.20008 5.10899C7.45698 4.6297 7.65572 4.12143 7.79208 3.59499L8.26808 1.76199C8.34252 1.47909 8.4777 1.2158 8.66421 0.990428C8.85072 0.765061 9.08408 0.583029 9.34808 0.456995ZM0.968078 8.48499C1.16134 8.47654 1.35039 8.54309 1.49574 8.67074C1.64109 8.79839 1.7315 8.97726 1.74808 9.16999L2.71808 20.406C2.73451 20.5733 2.71666 20.7422 2.66562 20.9024C2.61458 21.0626 2.53142 21.2107 2.42122 21.3377C2.31102 21.4647 2.17609 21.5678 2.02468 21.6409C1.87327 21.714 1.70855 21.7554 1.54058 21.7627C1.37261 21.77 1.20492 21.743 1.04775 21.6833C0.890583 21.6236 0.747232 21.5325 0.626457 21.4155C0.505682 21.2985 0.410016 21.1582 0.345304 21.003C0.280591 20.8478 0.248189 20.6811 0.250078 20.513V9.23399C0.249902 9.0405 0.324512 8.85443 0.458316 8.71466C0.59212 8.5749 0.774764 8.49325 0.968078 8.48499Z" fill="#A19CA9"/>
</svg>
