<svg width="48" height="48" viewBox="0 0 48 48" fill="none" xmlns="http://www.w3.org/2000/svg">
<g clip-path="url(#clip0_6027_9268)">
<path d="M47.3842 24.0009C47.3842 36.8947 36.8931 47.384 23.9993 47.384C23.9327 47.384 23.8673 47.384 23.8007 47.3823C10.9984 47.2756 0.616211 36.828 0.616211 24.0009C0.616211 11.1054 11.1055 0.616028 23.9993 0.616028C36.8398 0.616028 47.2971 11.0187 47.3824 23.8405C47.3842 23.8943 47.3842 23.9476 47.3842 24.0009Z" fill="url(#paint0_linear_6027_9268)"/>
<path opacity="0.26" d="M47.3839 24.0009C47.3839 36.8947 36.8928 47.384 23.999 47.384C23.9323 47.384 23.867 47.384 23.8003 47.3822L18.7959 42.3796L19.7621 17.7364C21.1639 11.5476 24.3395 7.55911 29.1817 5.64044L47.3817 23.8404C47.3839 23.8942 47.3839 23.9476 47.3839 24.0009Z" fill="black"/>
<path d="M29.6028 18.9067V19.68C29.6028 20.2062 29.1774 20.6315 28.6512 20.6315H21.2214V41.5147C21.2214 42.1413 20.713 42.6498 20.0863 42.6498H19.5321C18.9054 42.6498 18.397 42.1413 18.397 41.5147V17.6675C18.397 14.7298 19.5374 11.6542 21.5254 9.22799C23.4534 6.87821 25.8863 5.60132 28.4588 5.35421C28.9619 5.30488 29.3996 5.70577 29.3996 6.21243V7.06888C29.3996 7.63732 28.9863 8.12132 28.425 8.21288C24.357 8.87865 21.2214 13.5924 21.2214 17.6675V17.9555H28.6508C29.177 17.9551 29.6028 18.3809 29.6028 18.9067Z" fill="white"/>
<path d="M47.3837 24.0009C47.3837 36.8947 36.8926 47.384 23.9988 47.384C23.9322 47.384 23.8668 47.384 23.8002 47.3823C10.9979 47.2756 0.615723 36.828 0.615723 24.0009C0.615723 11.1054 11.1051 0.616028 23.9988 0.616028C36.8393 0.616028 47.2966 11.0187 47.3819 23.8405C47.3837 23.8943 47.3837 23.9476 47.3837 24.0009Z" stroke="#F15A24" stroke-width="0.923036" stroke-miterlimit="10"/>
</g>
<defs>
<linearGradient id="paint0_linear_6027_9268" x1="0.6163" y1="24" x2="47.3842" y2="24" gradientUnits="userSpaceOnUse">
<stop stop-color="#FF8302"/>
<stop offset="1" stop-color="#F15A24"/>
</linearGradient>
<clipPath id="clip0_6027_9268">
<rect width="48" height="48" fill="white"/>
</clipPath>
</defs>
</svg>
