<svg width="28" height="28" viewBox="0 0 28 28" fill="none" xmlns="http://www.w3.org/2000/svg">
<path fill-rule="evenodd" clip-rule="evenodd" d="M25.5182 25.4382C27.48 23.4738 27.48 20.3167 27.48 14C27.48 7.6832 27.48 4.52482 25.5182 2.56306C23.5538 0.599958 20.3967 0.599957 14.08 0.599957C7.76322 0.599957 4.60484 0.599958 2.64308 2.56306C0.679983 4.52348 0.679981 7.6832 0.679981 14C0.679981 20.3167 0.679983 23.4751 2.64308 25.4382C4.6035 27.4 7.76322 27.4 14.08 27.4C20.3967 27.4 23.5551 27.4 25.5182 25.4382ZM20.3016 13.1772C20.4308 12.9496 20.4661 12.6806 20.4 12.4273C20.3339 12.1741 20.1716 11.9567 19.9477 11.8212C19.7237 11.6858 19.4558 11.643 19.2008 11.7021C18.9459 11.7611 18.724 11.9173 18.5824 12.1374L18.577 12.1441L18.5408 12.1977C18.5033 12.2513 18.443 12.333 18.3586 12.4348C18.1871 12.6399 17.9218 12.9213 17.5546 13.2027C16.827 13.7628 15.6974 14.335 14.08 14.335C12.4626 14.335 11.333 13.7628 10.6054 13.2027C10.2382 12.9213 9.97288 12.6399 9.80136 12.4348C9.72364 12.3417 9.65073 12.2446 9.58294 12.1441L9.57758 12.1374C9.43597 11.9173 9.21409 11.7611 8.95913 11.7021C8.70417 11.643 8.43623 11.6858 8.21229 11.8212C7.98836 11.9567 7.82609 12.1741 7.75999 12.4273C7.6939 12.6806 7.72919 12.9496 7.85836 13.1772V13.1785L7.86104 13.1812L7.86372 13.1866L7.87176 13.2C7.90402 13.2516 7.93799 13.3021 7.9736 13.3514C8.06306 13.479 8.15784 13.6029 8.25768 13.7226C8.59162 14.1207 8.96817 14.4811 9.3806 14.7973C10.3963 15.5771 11.9454 16.345 14.08 16.345C16.2146 16.345 17.765 15.5771 18.7794 14.7959C19.2832 14.4087 19.6544 14.0187 19.9023 13.7226C20.0409 13.556 20.1698 13.3815 20.2882 13.2L20.2962 13.1866L20.2989 13.1812L20.3003 13.1785C20.3003 13.1785 20.3016 13.1772 19.44 12.66L20.3016 13.1772ZM4.69998 12.325C4.43344 12.325 4.17781 12.2191 3.98934 12.0306C3.80087 11.8421 3.69498 11.5865 3.69498 11.32V11.2476C3.69498 9.72938 3.69498 8.48988 3.8263 7.509C3.96432 6.48658 4.2618 5.5995 4.97066 4.89064C5.67952 4.18178 6.56526 3.8843 7.59036 3.74628C8.56856 3.61496 9.8094 3.61496 11.329 3.61496H11.4C11.6665 3.61496 11.9221 3.72084 12.1106 3.90932C12.2991 4.09779 12.405 4.35341 12.405 4.61996C12.405 4.8865 12.2991 5.14213 12.1106 5.3306C11.9221 5.51907 11.6665 5.62496 11.4 5.62496C9.79198 5.62496 8.68782 5.62764 7.85836 5.73886C7.05704 5.84606 6.66576 6.03902 6.3924 6.31238C6.11904 6.5844 5.92608 6.97702 5.81888 7.77834C5.70766 8.6078 5.70498 9.71196 5.70498 11.32C5.70498 11.5865 5.5991 11.8421 5.41063 12.0306C5.22215 12.2191 4.96652 12.325 4.69998 12.325ZM22.455 11.32C22.455 11.5865 22.5609 11.8421 22.7493 12.0306C22.9378 12.2191 23.1934 12.325 23.46 12.325C23.7265 12.325 23.9821 12.2191 24.1706 12.0306C24.3591 11.8421 24.465 11.5865 24.465 11.32V11.2476C24.465 9.72938 24.465 8.48988 24.3337 7.509C24.1956 6.48658 23.8982 5.5995 23.1893 4.89064C22.4804 4.18178 21.5947 3.8843 20.5696 3.74628C19.5914 3.61496 18.3506 3.61496 16.831 3.61496H16.76C16.4934 3.61496 16.2378 3.72084 16.0493 3.90932C15.8609 4.09779 15.755 4.35341 15.755 4.61996C15.755 4.8865 15.8609 5.14213 16.0493 5.3306C16.2378 5.51907 16.4934 5.62496 16.76 5.62496C18.368 5.62496 19.4721 5.62764 20.3016 5.73886C21.1029 5.84606 21.4942 6.03902 21.7676 6.31238C22.0409 6.5844 22.2339 6.97702 22.3411 7.77834C22.4523 8.6078 22.455 9.71196 22.455 11.32ZM16.8323 24.385H16.76C16.4934 24.385 16.2378 24.2791 16.0493 24.0906C15.8609 23.9021 15.755 23.6465 15.755 23.38C15.755 23.1134 15.8609 22.8578 16.0493 22.6693C16.2378 22.4808 16.4934 22.375 16.76 22.375C18.368 22.375 19.4721 22.3723 20.3016 22.2611C21.1029 22.1539 21.4942 21.9609 21.7676 21.6875C22.0409 21.4155 22.2339 21.0229 22.3411 20.2216C22.4523 19.3921 22.455 18.288 22.455 16.68C22.455 16.4134 22.5609 16.1578 22.7493 15.9693C22.9378 15.7808 23.1934 15.675 23.46 15.675C23.7265 15.675 23.9821 15.7808 24.1706 15.9693C24.3591 16.1578 24.465 16.4134 24.465 16.68V16.7523C24.465 18.2705 24.465 19.51 24.3337 20.4909C24.1956 21.5133 23.8982 22.4004 23.1893 23.1093C22.4804 23.8181 21.5947 24.1156 20.5696 24.2536C19.5914 24.385 18.3519 24.385 16.8323 24.385ZM11.4 22.375C9.79198 22.375 8.68782 22.3723 7.85836 22.2611C7.05704 22.1539 6.66576 21.9609 6.3924 21.6875C6.11904 21.4155 5.92608 21.0229 5.81888 20.2216C5.70766 19.3921 5.70498 18.288 5.70498 16.68C5.70498 16.4134 5.5991 16.1578 5.41063 15.9693C5.22215 15.7808 4.96652 15.675 4.69998 15.675C4.43344 15.675 4.17781 15.7808 3.98934 15.9693C3.80087 16.1578 3.69498 16.4134 3.69498 16.68V16.7523C3.69498 18.2705 3.69498 19.51 3.8263 20.4909C3.96432 21.5133 4.2618 22.4004 4.97066 23.1093C5.67952 23.8181 6.56526 24.1156 7.59036 24.2536C8.56856 24.385 9.8094 24.385 11.329 24.385H11.4C11.6665 24.385 11.9221 24.2791 12.1106 24.0906C12.2991 23.9021 12.405 23.6465 12.405 23.38C12.405 23.1134 12.2991 22.8578 12.1106 22.6693C11.9221 22.4808 11.6665 22.375 11.4 22.375Z" fill="#FF8A30"/>
</svg>
