<svg width="80" height="80" viewBox="0 0 80 80" fill="none" xmlns="http://www.w3.org/2000/svg">
<path d="M40 58.3333C44.1667 58.3333 47.7089 56.8756 50.6267 53.96C53.5444 51.0444 55.0022 47.5022 55 43.3333C55 39.1667 53.5422 35.6256 50.6267 32.71C47.7111 29.7944 44.1689 28.3356 40 28.3333C35.8333 28.3333 32.2922 29.7922 29.3767 32.71C26.4611 35.6278 25.0022 39.1689 25 43.3333C25 47.5 26.4589 51.0422 29.3767 53.96C32.2944 56.8778 35.8355 58.3356 40 58.3333ZM40 51.6667C37.6667 51.6667 35.6944 50.8611 34.0833 49.25C32.4722 47.6389 31.6667 45.6667 31.6667 43.3333C31.6667 41 32.4722 39.0278 34.0833 37.4167C35.6944 35.8056 37.6667 35 40 35C42.3333 35 44.3055 35.8056 45.9167 37.4167C47.5278 39.0278 48.3333 41 48.3333 43.3333C48.3333 45.6667 47.5278 47.6389 45.9167 49.25C44.3055 50.8611 42.3333 51.6667 40 51.6667ZM13.3333 70C11.5 70 9.9311 69.3478 8.62666 68.0433C7.32221 66.7389 6.66888 65.1689 6.66666 63.3333V23.3333C6.66666 21.5 7.31999 19.9311 8.62666 18.6267C9.93332 17.3222 11.5022 16.6689 13.3333 16.6667H23.8333L28 12.1667C28.6111 11.5 29.3478 10.9722 30.21 10.5833C31.0722 10.1944 31.9744 10 32.9167 10H47.0833C48.0278 10 48.9311 10.1944 49.7933 10.5833C50.6555 10.9722 51.3911 11.5 52 12.1667L56.1667 16.6667H66.6667C68.5 16.6667 70.07 17.32 71.3767 18.6267C72.6833 19.9333 73.3355 21.5022 73.3333 23.3333V63.3333C73.3333 65.1667 72.6811 66.7367 71.3767 68.0433C70.0722 69.35 68.5022 70.0022 66.6667 70H13.3333ZM13.3333 63.3333H66.6667V23.3333H53.1667L47.0833 16.6667H32.9167L26.8333 23.3333H13.3333V63.3333Z" fill="#6B6770"/>
<circle cx="64.1667" cy="64.1667" r="13.4921" fill="#D9D9D9"/>
<path d="M64.1667 50C60.4235 50.0454 56.8465 51.5526 54.1995 54.1995C51.5526 56.8465 50.0454 60.4235 50 64.1667C50.0454 67.9098 51.5526 71.4868 54.1995 74.1338C56.8465 76.7808 60.4235 78.2879 64.1667 78.3333C67.9098 78.2879 71.4868 76.7808 74.1338 74.1338C76.7808 71.4868 78.2879 67.9098 78.3333 64.1667C78.2879 60.4235 76.7808 56.8465 74.1338 54.1995C71.4868 51.5526 67.9098 50.0454 64.1667 50ZM72.2619 65.1786H65.1786V72.2619H63.1548V65.1786H56.0714V63.1548H63.1548V56.0714H65.1786V63.1548H72.2619V65.1786Z" fill="#FF8A30"/>
</svg>
