<svg width="14" height="13" viewBox="0 0 14 13" fill="none" xmlns="http://www.w3.org/2000/svg">
<path d="M6.33097 0.973588C6.62786 0.457777 7.37214 0.457777 7.66903 0.973588L9.26125 3.73993C9.37758 3.94204 9.57904 4.08073 9.80936 4.11726L13.0569 4.63234C13.69 4.73276 13.932 5.51647 13.4656 5.9563L11.2524 8.04374C11.0672 8.21847 10.98 8.47334 11.0195 8.72494L11.4811 11.6676C11.5762 12.2736 10.9605 12.743 10.4013 12.491L7.3172 11.1009C7.1155 11.0099 6.8845 11.0099 6.6828 11.1009L3.59869 12.491C3.03945 12.743 2.42382 12.2736 2.51889 11.6676L2.98054 8.72494C3.02001 8.47334 2.93285 8.21847 2.74758 8.04374L0.53437 5.9563C0.0680312 5.51647 0.309972 4.73276 0.943095 4.63234L4.19064 4.11726C4.42096 4.08073 4.62242 3.94204 4.73875 3.73993L6.33097 0.973588Z" fill="#FCAF23"/>
</svg>
