<svg width="28" height="28" viewBox="0 0 28 28" fill="none" xmlns="http://www.w3.org/2000/svg">
<path fill-rule="evenodd" clip-rule="evenodd" d="M4.7953 23.4752C-0.437871 18.242 -0.437871 9.75789 4.7953 4.52472C10.0285 -0.708445 18.5126 -0.708446 23.7458 4.52472C28.9789 9.75789 28.9789 18.242 23.7458 23.4752C18.5126 28.7084 10.0285 28.7084 4.7953 23.4752ZM19.0081 14.9475C19.2594 14.6962 19.4006 14.3553 19.4006 14C19.4006 13.6446 19.2594 13.3037 19.0081 13.0524L15.2181 9.26234C14.9668 9.01104 14.6259 8.86986 14.2705 8.86986C13.9151 8.86986 13.5743 9.01104 13.323 9.26234L9.53291 13.0524C9.28161 13.3037 9.14044 13.6446 9.14044 14C9.14044 14.3553 9.28161 14.6962 9.53291 14.9475C9.78421 15.1988 10.125 15.34 10.4804 15.34C10.8358 15.34 11.1767 15.1988 11.428 14.9475L12.9307 13.4447L12.9307 17.79C12.9276 17.968 12.96 18.1447 13.026 18.3099C13.0919 18.4752 13.1901 18.6257 13.3148 18.7526C13.4395 18.8795 13.5883 18.9803 13.7524 19.0491C13.9164 19.1179 14.0926 19.1533 14.2705 19.1533C14.4485 19.1533 14.6246 19.1179 14.7887 19.0491C14.9528 18.9803 15.1015 18.8795 15.2262 18.7526C15.351 18.6257 15.4492 18.4752 15.5151 18.3099C15.581 18.1447 15.6134 17.968 15.6103 17.79V13.4447L17.1131 14.9475C17.3644 15.1988 17.7052 15.34 18.0606 15.34C18.416 15.34 18.7568 15.1988 19.0081 14.9475Z" fill="#FF8A30"/>
</svg>
